<svg width="544" height="155" viewBox="0 0 544 155" fill="none" xmlns="http://www.w3.org/2000/svg">
<mask id="mask0_9_84" style="mask-type:alpha" maskUnits="userSpaceOnUse" x="0" y="33" width="115" height="115">
<circle cx="57.5" cy="90.5" r="52.5" fill="#D9D9D9" stroke="black" stroke-width="10"/>
</mask>
<g mask="url(#mask0_9_84)">
<circle cx="26" cy="59" r="67" stroke="#CF2727" stroke-width="10"/>
</g>
<circle cx="57.5" cy="90.5" r="52.5" stroke="black" stroke-width="10"/>
<path d="M216 80.4V91H208.7C205.5 91 202.767 90.4667 200.5 89.4C198.3 88.2667 196.667 86.6333 195.6 84.5C193 87.1667 189.933 89.1333 186.4 90.4C182.867 91.6 178.7 92.2 173.9 92.2C166.633 92.2 161 90.9 157 88.3C153 85.6333 151 81.9 151 77.1C151 73.1 152.5 69.8667 155.5 67.4C158.567 64.8667 162.9 63.3 168.5 62.7L194.1 59.9C193.3 54.2333 188.2 51.4 178.8 51.4C173.933 51.4 170.133 52.1 167.4 53.5C164.667 54.9 163.3 56.8333 163.3 59.3V59.6H151.3V59.3C151.3 55.5 152.433 52.1333 154.7 49.2C156.967 46.2667 160.167 44 164.3 42.4C168.5 40.8 173.367 40 178.9 40C187.5 40 194.2 41.9333 199 45.8C203.8 49.6 206.2 54.9333 206.2 61.8V75.6C206.2 77.1333 206.667 78.3333 207.6 79.2C208.533 80 209.867 80.4 211.6 80.4H216ZM173.6 81.6C178.667 81.6 182.967 80.8333 186.5 79.3C190.1 77.7667 192.667 75.6 194.2 72.8V69.7L171.1 72.2C165.7 72.8 163 74.4333 163 77.1C163 80.1 166.533 81.6 173.6 81.6ZM262.582 41.2V51.8H251.482C244.615 51.8 239.749 53.7333 236.882 57.6V91H224.882V41.2H236.082L236.382 46.1C240.649 42.8333 246.215 41.2 253.082 41.2H262.582ZM296.392 92.2C290.259 92.2 284.926 91.2 280.392 89.2C275.859 87.1333 272.359 84.2 269.892 80.4C267.492 76.6 266.292 72.1333 266.292 67V65.5C266.292 60.3 267.492 55.8 269.892 52C272.292 48.1333 275.759 45.1667 280.292 43.1C284.826 41.0333 290.192 40 296.392 40C302.526 40 307.826 41.0333 312.292 43.1C316.759 45.1667 320.192 48.1333 322.592 52C324.992 55.8 326.192 60.3 326.192 65.5V67C326.192 72.1333 324.992 76.6 322.592 80.4C320.192 84.2 316.759 87.1333 312.292 89.2C307.826 91.2 302.526 92.2 296.392 92.2ZM296.292 81.2C301.759 81.2 306.026 79.9667 309.092 77.5C312.226 74.9667 313.792 71.4667 313.792 67V65.5C313.792 60.9 312.259 57.3333 309.192 54.8C306.126 52.2667 301.826 51 296.292 51C290.626 51 286.259 52.2667 283.192 54.8C280.192 57.2667 278.692 60.8333 278.692 65.5V67C278.692 71.4667 280.226 74.9667 283.292 77.5C286.426 79.9667 290.759 81.2 296.292 81.2ZM393.649 41.2V91H382.449L382.049 85.6C377.449 89.8667 371.516 92.0667 364.249 92.2C355.516 92.2 348.883 90 344.349 85.6C339.883 81.2 337.649 74.7333 337.649 66.2V41.2H349.649V66.2C349.649 71.0667 350.983 74.8 353.649 77.4C356.383 79.9333 360.316 81.2 365.449 81.2C368.983 81.2 372.183 80.4 375.049 78.8C377.983 77.1333 380.183 74.9 381.649 72.1V41.2H393.649ZM438.843 40C447.576 40 454.176 42.2 458.643 46.6C463.176 51 465.443 57.4667 465.443 66V91H453.443V66C453.443 61.1333 452.076 57.4333 449.343 54.9C446.676 52.3 442.776 51 437.643 51C434.11 51 430.876 51.8333 427.943 53.5C425.076 55.1 422.91 57.3 421.443 60.1V91H409.443V41.2H420.643L421.043 46.6C425.643 42.3333 431.576 40.1333 438.843 40ZM535.737 21.4V91H524.537L524.237 86.4C519.37 90.2667 513.237 92.2 505.837 92.2C499.97 92.2 494.837 91.1667 490.437 89.1C486.103 87.0333 482.77 84.1 480.437 80.3C478.103 76.4333 476.937 71.9 476.937 66.7V65.4C476.937 60.2 478.103 55.7 480.437 51.9C482.77 48.1 486.103 45.1667 490.437 43.1C494.837 41.0333 499.97 40 505.837 40C512.837 40 518.803 41.8333 523.737 45.5V21.4H535.737ZM507.037 81.2C510.57 81.2 513.803 80.6 516.737 79.4C519.737 78.1333 522.07 76.4333 523.737 74.3V57.7C522.07 55.6333 519.737 54 516.737 52.8C513.803 51.6 510.57 51 507.037 51C501.437 51 497.07 52.2667 493.937 54.8C490.87 57.3333 489.337 60.8667 489.337 65.4V66.7C489.337 71.2333 490.903 74.8 494.037 77.4C497.17 79.9333 501.503 81.2 507.037 81.2Z" fill="black"/>
<path d="M157.788 146.465C156.124 146.465 154.584 146.181 153.169 145.612C151.763 145.034 150.539 144.233 149.495 143.21C148.451 142.187 147.64 140.988 147.062 139.614C146.493 138.24 146.209 136.752 146.209 135.15C146.209 133.538 146.493 132.045 147.062 130.67C147.64 129.296 148.451 128.097 149.495 127.074C150.539 126.051 151.763 125.256 153.169 124.687C154.584 124.119 156.124 123.835 157.788 123.835C159.462 123.835 161.001 124.124 162.407 124.703C163.812 125.282 165.036 126.088 166.08 127.121C167.124 128.154 167.93 129.358 168.498 130.732C169.077 132.096 169.366 133.569 169.366 135.15C169.366 136.752 169.077 138.24 168.498 139.614C167.93 140.988 167.124 142.187 166.08 143.21C165.036 144.233 163.812 145.034 162.407 145.612C161.001 146.181 159.462 146.465 157.788 146.465ZM157.788 141.629C158.687 141.629 159.508 141.479 160.252 141.179C161.006 140.88 161.663 140.446 162.221 139.877C162.779 139.309 163.207 138.627 163.507 137.831C163.817 137.025 163.972 136.132 163.972 135.15C163.972 133.827 163.703 132.68 163.166 131.709C162.639 130.738 161.905 129.988 160.965 129.461C160.035 128.924 158.976 128.655 157.788 128.655C156.899 128.655 156.077 128.81 155.323 129.12C154.569 129.42 153.913 129.854 153.355 130.423C152.807 130.991 152.378 131.673 152.068 132.468C151.758 133.264 151.603 134.158 151.603 135.15C151.603 136.462 151.872 137.604 152.409 138.575C152.946 139.547 153.68 140.301 154.61 140.838C155.55 141.365 156.61 141.629 157.788 141.629ZM175.836 146V134.22H171.279V130.19H185.461V134.22H180.92V146H175.836ZM198.494 146L193.581 137.738L198.649 130.19H204.012L199.021 137.46L204.508 146H198.494ZM188.28 146V130.19H193.364V135.878H198.184V139.908H193.364V146H188.28ZM206.959 152.51V130.19H211.345V132.003C211.934 131.311 212.683 130.758 213.593 130.345C214.512 129.932 215.577 129.725 216.786 129.725C218.294 129.725 219.638 130.071 220.816 130.763C222.004 131.456 222.939 132.432 223.621 133.693C224.303 134.954 224.644 136.421 224.644 138.095C224.644 139.273 224.448 140.373 224.055 141.396C223.673 142.409 223.125 143.298 222.412 144.062C221.699 144.817 220.857 145.406 219.886 145.829C218.925 146.253 217.86 146.465 216.693 146.465C215.763 146.465 214.905 146.315 214.12 146.016C213.345 145.716 212.647 145.292 212.027 144.744V152.51H206.959ZM215.84 142.094C216.574 142.094 217.23 141.934 217.809 141.613C218.387 141.283 218.842 140.818 219.173 140.218C219.503 139.619 219.669 138.911 219.669 138.095C219.669 137.268 219.498 136.56 219.157 135.971C218.826 135.372 218.372 134.912 217.793 134.592C217.225 134.261 216.574 134.096 215.84 134.096C215.117 134.096 214.466 134.261 213.887 134.592C213.308 134.912 212.854 135.372 212.523 135.971C212.192 136.56 212.027 137.268 212.027 138.095C212.027 138.911 212.192 139.619 212.523 140.218C212.854 140.818 213.303 141.283 213.872 141.613C214.45 141.934 215.106 142.094 215.84 142.094ZM227.605 146V130.19H232.689V142.435H234.642C235.438 142.435 236.047 142.259 236.471 141.908C236.905 141.546 237.122 141.04 237.122 140.389C237.122 139.759 236.926 139.257 236.533 138.885C236.151 138.503 235.603 138.312 234.89 138.312H232.178V134.793H235.309C237.499 134.793 239.215 135.264 240.455 136.204C241.705 137.134 242.33 138.529 242.33 140.389C242.33 141.557 242.041 142.559 241.462 143.396C240.883 144.233 240.062 144.879 238.998 145.333C237.933 145.778 236.678 146 235.231 146H227.605ZM244.438 146V130.19H249.522V146H244.438ZM256.878 146V134.22H252.321V130.19H266.503V134.22H261.962V146H256.878ZM269.322 146V130.19H274.406V142.435H276.359C277.155 142.435 277.764 142.259 278.188 141.908C278.622 141.546 278.839 141.04 278.839 140.389C278.839 139.759 278.643 139.257 278.25 138.885C277.868 138.503 277.32 138.312 276.607 138.312H273.894V134.793H277.025C279.216 134.793 280.931 135.264 282.171 136.204C283.422 137.134 284.047 138.529 284.047 140.389C284.047 141.557 283.758 142.559 283.179 143.396C282.6 144.233 281.779 144.879 280.714 145.333C279.65 145.778 278.395 146 276.948 146H269.322ZM286.155 146V130.19H291.239V146H286.155ZM295.448 146V130.19H300.299V138.87L307.119 130.19H311.676V146H306.825V137.196L299.989 146H295.448ZM303.554 128.02C302.263 128.02 301.136 127.777 300.175 127.291C299.214 126.795 298.47 126.113 297.943 125.245C297.427 124.377 297.179 123.37 297.199 122.223H301.322C301.281 122.977 301.462 123.587 301.865 124.052C302.278 124.507 302.841 124.734 303.554 124.734C304.267 124.734 304.825 124.507 305.228 124.052C305.631 123.587 305.817 122.977 305.786 122.223H309.909C309.93 123.349 309.672 124.352 309.134 125.23C308.607 126.098 307.858 126.78 306.887 127.276C305.926 127.772 304.815 128.02 303.554 128.02ZM331.056 146.465C329.723 146.465 328.509 146.233 327.413 145.767C326.328 145.302 325.393 144.636 324.608 143.768C323.823 142.89 323.218 141.83 322.794 140.59C322.371 139.35 322.159 137.955 322.159 136.405C322.159 134.69 322.309 133.161 322.608 131.817C322.918 130.474 323.394 129.312 324.034 128.33C324.685 127.338 325.517 126.532 326.53 125.912C327.553 125.292 328.772 124.853 330.188 124.594L337.767 123.215L338.511 127.384L331.133 128.609C330.141 128.795 329.351 129.074 328.762 129.446C328.173 129.818 327.729 130.309 327.429 130.918C327.14 131.528 326.948 132.282 326.855 133.181C327.506 132.572 328.261 132.091 329.118 131.74C329.986 131.389 330.947 131.213 332.001 131.213C333.469 131.213 334.766 131.538 335.892 132.189C337.018 132.84 337.902 133.719 338.542 134.824C339.193 135.92 339.519 137.139 339.519 138.482C339.519 139.588 339.317 140.627 338.914 141.598C338.511 142.559 337.938 143.406 337.194 144.14C336.45 144.874 335.561 145.447 334.528 145.86C333.495 146.264 332.337 146.465 331.056 146.465ZM331.009 142.094C331.671 142.094 332.265 141.949 332.792 141.66C333.329 141.371 333.753 140.962 334.063 140.435C334.383 139.908 334.543 139.283 334.543 138.56C334.543 137.826 334.388 137.196 334.078 136.669C333.768 136.142 333.345 135.739 332.807 135.46C332.28 135.171 331.681 135.026 331.009 135.026C330.338 135.026 329.733 135.171 329.196 135.46C328.659 135.739 328.235 136.142 327.925 136.669C327.615 137.196 327.46 137.826 327.46 138.56C327.46 139.283 327.615 139.908 327.925 140.435C328.245 140.962 328.674 141.371 329.211 141.66C329.749 141.949 330.348 142.094 331.009 142.094ZM347.093 146.465C346.039 146.465 345.093 146.264 344.256 145.86C343.419 145.447 342.758 144.863 342.272 144.109C341.786 143.344 341.544 142.43 341.544 141.365C341.544 140.456 341.766 139.65 342.21 138.947C342.665 138.245 343.347 137.666 344.256 137.211C345.165 136.757 346.307 136.452 347.682 136.297C349.066 136.132 350.683 136.132 352.533 136.297L352.58 139.459C351.598 139.283 350.709 139.195 349.914 139.195C349.128 139.185 348.457 139.252 347.899 139.397C347.351 139.531 346.927 139.743 346.628 140.032C346.328 140.322 346.178 140.678 346.178 141.102C346.178 141.65 346.385 142.068 346.798 142.357C347.222 142.647 347.785 142.791 348.488 142.791C349.097 142.791 349.645 142.683 350.131 142.466C350.627 142.249 351.019 141.934 351.309 141.52C351.608 141.097 351.758 140.58 351.758 139.97V136.359C351.758 135.791 351.639 135.289 351.402 134.855C351.164 134.421 350.787 134.086 350.27 133.848C349.764 133.6 349.087 133.476 348.24 133.476C347.423 133.476 346.612 133.6 345.806 133.848C345 134.086 344.277 134.447 343.636 134.933L342.334 131.445C343.357 130.805 344.452 130.335 345.62 130.035C346.788 129.725 347.935 129.57 349.061 129.57C350.549 129.57 351.856 129.808 352.983 130.283C354.119 130.758 355.008 131.492 355.649 132.484C356.289 133.476 356.61 134.747 356.61 136.297V146H352.223V144.326C351.717 145.008 351.019 145.535 350.131 145.907C349.242 146.279 348.229 146.465 347.093 146.465ZM360.627 146V130.19H365.711V135.878H371.771V130.19H376.855V146H371.771V139.908H365.711V146H360.627ZM391.276 146L386.362 137.738L391.431 130.19H396.794L391.803 137.46L397.29 146H391.276ZM381.061 146V130.19H386.145V135.878H390.966V139.908H386.145V146H381.061ZM412.526 146.419C411.627 146.419 410.749 146.351 409.891 146.217C409.044 146.083 408.238 145.866 407.473 145.566C406.719 145.256 406.047 144.858 405.458 144.372L407.411 141.179C408.011 141.717 408.739 142.115 409.597 142.373C410.465 142.621 411.369 142.745 412.309 142.745C413.322 142.745 414.107 142.611 414.665 142.342C415.223 142.073 415.502 141.634 415.502 141.024C415.502 140.497 415.229 140.136 414.681 139.939C414.144 139.743 413.322 139.645 412.216 139.645H409.318V136.126H412.077C413.079 136.126 413.813 136.023 414.278 135.816C414.743 135.599 414.975 135.253 414.975 134.778C414.975 134.478 414.857 134.23 414.619 134.034C414.392 133.838 414.061 133.693 413.627 133.6C413.203 133.497 412.697 133.445 412.108 133.445C411.24 133.445 410.408 133.574 409.612 133.832C408.817 134.08 408.135 134.473 407.566 135.01L405.846 131.724C406.766 131.011 407.825 130.49 409.023 130.159C410.222 129.818 411.405 129.647 412.573 129.647C414.03 129.647 415.27 129.823 416.293 130.174C417.326 130.515 418.112 131.011 418.649 131.662C419.197 132.313 419.47 133.099 419.47 134.018C419.47 134.742 419.243 135.408 418.788 136.018C418.344 136.617 417.693 137.036 416.835 137.273C417.92 137.573 418.742 138.043 419.3 138.684C419.868 139.314 420.152 140.131 420.152 141.133C420.152 142.187 419.842 143.112 419.222 143.907C418.613 144.703 417.74 145.323 416.603 145.767C415.466 146.202 414.107 146.419 412.526 146.419ZM427.862 146.465C426.808 146.465 425.863 146.264 425.026 145.86C424.189 145.447 423.527 144.863 423.042 144.109C422.556 143.344 422.313 142.43 422.313 141.365C422.313 140.456 422.535 139.65 422.98 138.947C423.434 138.245 424.116 137.666 425.026 137.211C425.935 136.757 427.077 136.452 428.451 136.297C429.836 136.132 431.453 136.132 433.303 136.297L433.349 139.459C432.367 139.283 431.479 139.195 430.683 139.195C429.898 139.185 429.226 139.252 428.668 139.397C428.12 139.531 427.697 139.743 427.397 140.032C427.097 140.322 426.948 140.678 426.948 141.102C426.948 141.65 427.154 142.068 427.568 142.357C427.991 142.647 428.554 142.791 429.257 142.791C429.867 142.791 430.414 142.683 430.9 142.466C431.396 142.249 431.789 141.934 432.078 141.52C432.378 141.097 432.528 140.58 432.528 139.97V136.359C432.528 135.791 432.409 135.289 432.171 134.855C431.933 134.421 431.556 134.086 431.04 133.848C430.533 133.6 429.856 133.476 429.009 133.476C428.193 133.476 427.382 133.6 426.576 133.848C425.77 134.086 425.046 134.447 424.406 134.933L423.104 131.445C424.127 130.805 425.222 130.335 426.39 130.035C427.557 129.725 428.704 129.57 429.831 129.57C431.319 129.57 432.626 129.808 433.752 130.283C434.889 130.758 435.777 131.492 436.418 132.484C437.059 133.476 437.379 134.747 437.379 136.297V146H432.993V144.326C432.486 145.008 431.789 145.535 430.9 145.907C430.011 146.279 428.999 146.465 427.862 146.465ZM452.463 146V134.22H447.922V135.305C447.922 136.514 447.818 137.682 447.612 138.808C447.405 139.924 447.043 140.952 446.527 141.892C446.01 142.822 445.297 143.613 444.388 144.264C443.489 144.915 442.342 145.375 440.947 145.643L439.986 142.109C440.905 141.903 441.603 141.469 442.078 140.807C442.564 140.146 442.889 139.335 443.055 138.374C443.22 137.413 443.303 136.39 443.303 135.305V130.19H457.547V146H452.463ZM439.986 150.65V142.109L442.636 142.295L443.442 141.97H460.709V150.65H456.075V146H444.62V150.65H439.986ZM468.247 146.465C467.193 146.465 466.247 146.264 465.41 145.86C464.573 145.447 463.912 144.863 463.426 144.109C462.941 143.344 462.698 142.43 462.698 141.365C462.698 140.456 462.92 139.65 463.364 138.947C463.819 138.245 464.501 137.666 465.41 137.211C466.32 136.757 467.462 136.452 468.836 136.297C470.221 136.132 471.838 136.132 473.687 136.297L473.734 139.459C472.752 139.283 471.864 139.195 471.068 139.195C470.283 139.185 469.611 139.252 469.053 139.397C468.505 139.531 468.082 139.743 467.782 140.032C467.482 140.322 467.332 140.678 467.332 141.102C467.332 141.65 467.539 142.068 467.952 142.357C468.376 142.647 468.939 142.791 469.642 142.791C470.252 142.791 470.799 142.683 471.285 142.466C471.781 142.249 472.174 141.934 472.463 141.52C472.763 141.097 472.912 140.58 472.912 139.97V136.359C472.912 135.791 472.794 135.289 472.556 134.855C472.318 134.421 471.941 134.086 471.424 133.848C470.918 133.6 470.241 133.476 469.394 133.476C468.578 133.476 467.766 133.6 466.96 133.848C466.154 134.086 465.431 134.447 464.79 134.933L463.488 131.445C464.511 130.805 465.607 130.335 466.774 130.035C467.942 129.725 469.089 129.57 470.215 129.57C471.703 129.57 473.011 129.808 474.137 130.283C475.274 130.758 476.162 131.492 476.803 132.484C477.444 133.476 477.764 134.747 477.764 136.297V146H473.377V144.326C472.871 145.008 472.174 145.535 471.285 145.907C470.396 146.279 469.384 146.465 468.247 146.465ZM481.781 146V130.19H486.865V135.878H492.925V130.19H498.009V146H492.925V139.908H486.865V146H481.781ZM502.215 146V130.19H507.067V138.87L513.887 130.19H518.444V146H513.592V137.196L506.757 146H502.215ZM522.65 146V130.19H527.501V138.87L534.321 130.19H538.878V146H534.027V137.196L527.191 146H522.65ZM530.756 128.02C529.465 128.02 528.338 127.777 527.377 127.291C526.416 126.795 525.672 126.113 525.145 125.245C524.629 124.377 524.381 123.37 524.401 122.223H528.524C528.483 122.977 528.664 123.587 529.067 124.052C529.48 124.507 530.043 124.734 530.756 124.734C531.469 124.734 532.027 124.507 532.43 124.052C532.833 123.587 533.019 122.977 532.988 122.223H537.111C537.132 123.349 536.874 124.352 536.336 125.23C535.809 126.098 535.06 126.78 534.089 127.276C533.128 127.772 532.017 128.02 530.756 128.02Z" fill="black"/>
</svg>
