<svg width="544" height="116" viewBox="0 0 544 116" fill="none" xmlns="http://www.w3.org/2000/svg">
<mask id="mask0_9_85" style="mask-type:alpha" maskUnits="userSpaceOnUse" x="0" y="0" width="115" height="115">
<circle cx="57.5" cy="57.5" r="52.5" fill="#D9D9D9" stroke="black" stroke-width="10"/>
</mask>
<g mask="url(#mask0_9_85)">
<circle cx="26" cy="26" r="67" stroke="#CF2727" stroke-width="10"/>
</g>
<circle cx="57.5" cy="57.5" r="52.5" stroke="black" stroke-width="10"/>
<path d="M216 80.4V91H208.7C205.5 91 202.767 90.4667 200.5 89.4C198.3 88.2667 196.667 86.6333 195.6 84.5C193 87.1667 189.933 89.1333 186.4 90.4C182.867 91.6 178.7 92.2 173.9 92.2C166.633 92.2 161 90.9 157 88.3C153 85.6333 151 81.9 151 77.1C151 73.1 152.5 69.8667 155.5 67.4C158.567 64.8667 162.9 63.3 168.5 62.7L194.1 59.9C193.3 54.2333 188.2 51.4 178.8 51.4C173.933 51.4 170.133 52.1 167.4 53.5C164.667 54.9 163.3 56.8333 163.3 59.3V59.6H151.3V59.3C151.3 55.5 152.433 52.1333 154.7 49.2C156.967 46.2667 160.167 44 164.3 42.4C168.5 40.8 173.367 40 178.9 40C187.5 40 194.2 41.9333 199 45.8C203.8 49.6 206.2 54.9333 206.2 61.8V75.6C206.2 77.1333 206.667 78.3333 207.6 79.2C208.533 80 209.867 80.4 211.6 80.4H216ZM173.6 81.6C178.667 81.6 182.967 80.8333 186.5 79.3C190.1 77.7667 192.667 75.6 194.2 72.8V69.7L171.1 72.2C165.7 72.8 163 74.4333 163 77.1C163 80.1 166.533 81.6 173.6 81.6ZM262.582 41.2V51.8H251.482C244.615 51.8 239.749 53.7333 236.882 57.6V91H224.882V41.2H236.082L236.382 46.1C240.649 42.8333 246.215 41.2 253.082 41.2H262.582ZM296.392 92.2C290.259 92.2 284.926 91.2 280.392 89.2C275.859 87.1333 272.359 84.2 269.892 80.4C267.492 76.6 266.292 72.1333 266.292 67V65.5C266.292 60.3 267.492 55.8 269.892 52C272.292 48.1333 275.759 45.1667 280.292 43.1C284.826 41.0333 290.192 40 296.392 40C302.526 40 307.826 41.0333 312.292 43.1C316.759 45.1667 320.192 48.1333 322.592 52C324.992 55.8 326.192 60.3 326.192 65.5V67C326.192 72.1333 324.992 76.6 322.592 80.4C320.192 84.2 316.759 87.1333 312.292 89.2C307.826 91.2 302.526 92.2 296.392 92.2ZM296.292 81.2C301.759 81.2 306.026 79.9667 309.092 77.5C312.226 74.9667 313.792 71.4667 313.792 67V65.5C313.792 60.9 312.259 57.3333 309.192 54.8C306.126 52.2667 301.826 51 296.292 51C290.626 51 286.259 52.2667 283.192 54.8C280.192 57.2667 278.692 60.8333 278.692 65.5V67C278.692 71.4667 280.226 74.9667 283.292 77.5C286.426 79.9667 290.759 81.2 296.292 81.2ZM393.649 41.2V91H382.449L382.049 85.6C377.449 89.8667 371.516 92.0667 364.249 92.2C355.516 92.2 348.883 90 344.349 85.6C339.883 81.2 337.649 74.7333 337.649 66.2V41.2H349.649V66.2C349.649 71.0667 350.983 74.8 353.649 77.4C356.383 79.9333 360.316 81.2 365.449 81.2C368.983 81.2 372.183 80.4 375.049 78.8C377.983 77.1333 380.183 74.9 381.649 72.1V41.2H393.649ZM438.843 40C447.576 40 454.176 42.2 458.643 46.6C463.176 51 465.443 57.4667 465.443 66V91H453.443V66C453.443 61.1333 452.076 57.4333 449.343 54.9C446.676 52.3 442.776 51 437.643 51C434.11 51 430.876 51.8333 427.943 53.5C425.076 55.1 422.91 57.3 421.443 60.1V91H409.443V41.2H420.643L421.043 46.6C425.643 42.3333 431.576 40.1333 438.843 40ZM535.737 21.4V91H524.537L524.237 86.4C519.37 90.2667 513.237 92.2 505.837 92.2C499.97 92.2 494.837 91.1667 490.437 89.1C486.103 87.0333 482.77 84.1 480.437 80.3C478.103 76.4333 476.937 71.9 476.937 66.7V65.4C476.937 60.2 478.103 55.7 480.437 51.9C482.77 48.1 486.103 45.1667 490.437 43.1C494.837 41.0333 499.97 40 505.837 40C512.837 40 518.803 41.8333 523.737 45.5V21.4H535.737ZM507.037 81.2C510.57 81.2 513.803 80.6 516.737 79.4C519.737 78.1333 522.07 76.4333 523.737 74.3V57.7C522.07 55.6333 519.737 54 516.737 52.8C513.803 51.6 510.57 51 507.037 51C501.437 51 497.07 52.2667 493.937 54.8C490.87 57.3333 489.337 60.8667 489.337 65.4V66.7C489.337 71.2333 490.903 74.8 494.037 77.4C497.17 79.9333 501.503 81.2 507.037 81.2Z" fill="black"/>
</svg>
